<?xml version="1.0" encoding="UTF-8" standalone="no"?>
<!DOCTYPE svg PUBLIC "-//W3C//DTD SVG 1.1//EN"
 "http://www.w3.org/Graphics/SVG/1.1/DTD/svg11.dtd">
<!-- Generated by graphviz version 13.1.0 (20250701.0955)
 -->
<!-- Pages: 1 -->
<svg width="1310pt" height="1340pt"
 viewBox="0.00 0.00 1310.00 1340.00" xmlns="http://www.w3.org/2000/svg" xmlns:xlink="http://www.w3.org/1999/xlink">
<g id="graph0" class="graph" transform="scale(1 1) rotate(0) translate(4 1336)">
<polygon fill="white" stroke="none" points="-4,4 -4,-1336 1305.75,-1336 1305.75,4 -4,4"/>
<!-- 3407997064994792403 -->
<g id="node1" class="node">
<title>3407997064994792403</title>
<polygon fill="none" stroke="black" points="654.5,-1332 261.25,-1332 261.25,-1296 654.5,-1296 654.5,-1332"/>
<text xml:space="preserve" text-anchor="middle" x="457.88" y="-1306.62" font-family="Helvetica,sans-Serif" font-size="20.00">Assign(Assign, pickup_hour, PropertyMap)</text>
</g>
<!-- 4492043908104550672 -->
<g id="node2" class="node">
<title>4492043908104550672</title>
<polygon fill="none" stroke="black" points="685.62,-1260 452.12,-1260 452.12,-1224 685.62,-1224 685.62,-1260"/>
<text xml:space="preserve" text-anchor="middle" x="568.88" y="-1234.62" font-family="Helvetica,sans-Serif" font-size="20.00">PropertyMap(Projection)</text>
</g>
<!-- 4492043908104550672&#45;&gt;3407997064994792403 -->
<g id="edge1" class="edge">
<title>4492043908104550672&#45;&gt;3407997064994792403</title>
<path fill="none" stroke="black" d="M541.15,-1260.48C527.14,-1269.32 509.95,-1280.16 494.83,-1289.7"/>
<polygon fill="black" stroke="black" points="493.12,-1286.64 486.53,-1294.93 496.85,-1292.56 493.12,-1286.64"/>
</g>
<!-- &#45;731654886691363321 -->
<g id="node3" class="node">
<title>&#45;731654886691363321</title>
<polygon fill="none" stroke="black" points="799.38,-1188 414.38,-1188 414.38,-1152 799.38,-1152 799.38,-1188"/>
<text xml:space="preserve" text-anchor="middle" x="606.88" y="-1162.62" font-family="Helvetica,sans-Serif" font-size="20.00">Projection(Assign, tpep_pickup_datetime)</text>
</g>
<!-- &#45;731654886691363321&#45;&gt;4492043908104550672 -->
<g id="edge3" class="edge">
<title>&#45;731654886691363321&#45;&gt;4492043908104550672</title>
<path fill="none" stroke="black" d="M597.48,-1188.3C593.29,-1196.02 588.26,-1205.29 583.59,-1213.89"/>
<polygon fill="black" stroke="black" points="580.58,-1212.11 578.88,-1222.57 586.73,-1215.45 580.58,-1212.11"/>
</g>
<!-- 2770824566888605221 -->
<g id="node4" class="node">
<title>2770824566888605221</title>
<polygon fill="none" stroke="black" points="731.88,-1116 259.88,-1116 259.88,-1080 731.88,-1080 731.88,-1116"/>
<text xml:space="preserve" text-anchor="middle" x="495.88" y="-1090.62" font-family="Helvetica,sans-Serif" font-size="20.00">Assign(Assign, pickup_day_of_week, PropertyMap)</text>
</g>
<!-- 2770824566888605221&#45;&gt;3407997064994792403 -->
<g id="edge2" class="edge">
<title>2770824566888605221&#45;&gt;3407997064994792403</title>
<path fill="none" stroke="black" d="M445.83,-1116.4C429.86,-1124.59 413.99,-1136.15 404.88,-1152 379.65,-1195.89 412.25,-1253.49 436.36,-1286.56"/>
<polygon fill="black" stroke="black" points="433.46,-1288.52 442.28,-1294.39 439.04,-1284.3 433.46,-1288.52"/>
</g>
<!-- 2770824566888605221&#45;&gt;&#45;731654886691363321 -->
<g id="edge4" class="edge">
<title>2770824566888605221&#45;&gt;&#45;731654886691363321</title>
<path fill="none" stroke="black" d="M523.6,-1116.48C537.61,-1125.32 554.8,-1136.16 569.92,-1145.7"/>
<polygon fill="black" stroke="black" points="567.9,-1148.56 578.22,-1150.93 571.63,-1142.64 567.9,-1148.56"/>
</g>
<!-- &#45;5230095074818013311 -->
<g id="node5" class="node">
<title>&#45;5230095074818013311</title>
<polygon fill="none" stroke="black" points="723.62,-1044 490.12,-1044 490.12,-1008 723.62,-1008 723.62,-1044"/>
<text xml:space="preserve" text-anchor="middle" x="606.88" y="-1018.62" font-family="Helvetica,sans-Serif" font-size="20.00">PropertyMap(Projection)</text>
</g>
<!-- &#45;5230095074818013311&#45;&gt;2770824566888605221 -->
<g id="edge5" class="edge">
<title>&#45;5230095074818013311&#45;&gt;2770824566888605221</title>
<path fill="none" stroke="black" d="M579.15,-1044.48C565.14,-1053.32 547.95,-1064.16 532.83,-1073.7"/>
<polygon fill="black" stroke="black" points="531.12,-1070.64 524.53,-1078.93 534.85,-1076.56 531.12,-1070.64"/>
</g>
<!-- &#45;1913953396526525469 -->
<g id="node6" class="node">
<title>&#45;1913953396526525469</title>
<polygon fill="none" stroke="black" points="837.38,-972 452.38,-972 452.38,-936 837.38,-936 837.38,-972"/>
<text xml:space="preserve" text-anchor="middle" x="644.88" y="-946.62" font-family="Helvetica,sans-Serif" font-size="20.00">Projection(Assign, tpep_pickup_datetime)</text>
</g>
<!-- &#45;1913953396526525469&#45;&gt;&#45;5230095074818013311 -->
<g id="edge7" class="edge">
<title>&#45;1913953396526525469&#45;&gt;&#45;5230095074818013311</title>
<path fill="none" stroke="black" d="M635.48,-972.3C631.29,-980.02 626.26,-989.29 621.59,-997.89"/>
<polygon fill="black" stroke="black" points="618.58,-996.11 616.88,-1006.57 624.73,-999.45 618.58,-996.11"/>
</g>
<!-- &#45;7055414645630029810 -->
<g id="node7" class="node">
<title>&#45;7055414645630029810</title>
<polygon fill="none" stroke="black" points="738.75,-900 329,-900 329,-864 738.75,-864 738.75,-900"/>
<text xml:space="preserve" text-anchor="middle" x="533.88" y="-874.62" font-family="Helvetica,sans-Serif" font-size="20.00">Assign(Assign, pickup_month, PropertyMap)</text>
</g>
<!-- &#45;7055414645630029810&#45;&gt;2770824566888605221 -->
<g id="edge6" class="edge">
<title>&#45;7055414645630029810&#45;&gt;2770824566888605221</title>
<path fill="none" stroke="black" d="M483.83,-900.4C467.86,-908.59 451.99,-920.15 442.88,-936 417.65,-979.89 450.25,-1037.49 474.36,-1070.56"/>
<polygon fill="black" stroke="black" points="471.46,-1072.52 480.28,-1078.39 477.04,-1068.3 471.46,-1072.52"/>
</g>
<!-- &#45;7055414645630029810&#45;&gt;&#45;1913953396526525469 -->
<g id="edge8" class="edge">
<title>&#45;7055414645630029810&#45;&gt;&#45;1913953396526525469</title>
<path fill="none" stroke="black" d="M561.6,-900.48C575.61,-909.32 592.8,-920.16 607.92,-929.7"/>
<polygon fill="black" stroke="black" points="605.9,-932.56 616.22,-934.93 609.63,-926.64 605.9,-932.56"/>
</g>
<!-- &#45;1147934231017070021 -->
<g id="node8" class="node">
<title>&#45;1147934231017070021</title>
<polygon fill="none" stroke="black" points="761.62,-828 528.12,-828 528.12,-792 761.62,-792 761.62,-828"/>
<text xml:space="preserve" text-anchor="middle" x="644.88" y="-802.62" font-family="Helvetica,sans-Serif" font-size="20.00">PropertyMap(Projection)</text>
</g>
<!-- &#45;1147934231017070021&#45;&gt;&#45;7055414645630029810 -->
<g id="edge9" class="edge">
<title>&#45;1147934231017070021&#45;&gt;&#45;7055414645630029810</title>
<path fill="none" stroke="black" d="M617.15,-828.48C603.14,-837.32 585.95,-848.16 570.83,-857.7"/>
<polygon fill="black" stroke="black" points="569.12,-854.64 562.53,-862.93 572.85,-860.56 569.12,-854.64"/>
</g>
<!-- 5473262827751630618 -->
<g id="node9" class="node">
<title>5473262827751630618</title>
<polygon fill="none" stroke="black" points="875.38,-756 490.38,-756 490.38,-720 875.38,-720 875.38,-756"/>
<text xml:space="preserve" text-anchor="middle" x="682.88" y="-730.62" font-family="Helvetica,sans-Serif" font-size="20.00">Projection(Assign, tpep_pickup_datetime)</text>
</g>
<!-- 5473262827751630618&#45;&gt;&#45;1147934231017070021 -->
<g id="edge11" class="edge">
<title>5473262827751630618&#45;&gt;&#45;1147934231017070021</title>
<path fill="none" stroke="black" d="M673.48,-756.3C669.29,-764.02 664.26,-773.29 659.59,-781.89"/>
<polygon fill="black" stroke="black" points="656.58,-780.11 654.88,-790.57 662.73,-783.45 656.58,-780.11"/>
</g>
<!-- &#45;2808456881916695564 -->
<g id="node10" class="node">
<title>&#45;2808456881916695564</title>
<polygon fill="none" stroke="black" points="807.5,-684 336.25,-684 336.25,-648 807.5,-648 807.5,-684"/>
<text xml:space="preserve" text-anchor="middle" x="571.88" y="-658.62" font-family="Helvetica,sans-Serif" font-size="20.00">Assign(Assign, tpep_dropoff_datetime, ToDatetime)</text>
</g>
<!-- &#45;2808456881916695564&#45;&gt;&#45;7055414645630029810 -->
<g id="edge10" class="edge">
<title>&#45;2808456881916695564&#45;&gt;&#45;7055414645630029810</title>
<path fill="none" stroke="black" d="M521.83,-684.4C505.86,-692.59 489.99,-704.15 480.88,-720 455.65,-763.89 488.25,-821.49 512.36,-854.56"/>
<polygon fill="black" stroke="black" points="509.46,-856.52 518.28,-862.39 515.04,-852.3 509.46,-856.52"/>
</g>
<!-- &#45;2808456881916695564&#45;&gt;5473262827751630618 -->
<g id="edge12" class="edge">
<title>&#45;2808456881916695564&#45;&gt;5473262827751630618</title>
<path fill="none" stroke="black" d="M599.6,-684.48C613.61,-693.32 630.8,-704.16 645.92,-713.7"/>
<polygon fill="black" stroke="black" points="643.9,-716.56 654.22,-718.93 647.63,-710.64 643.9,-716.56"/>
</g>
<!-- &#45;4436528587271189447 -->
<g id="node11" class="node">
<title>&#45;4436528587271189447</title>
<polygon fill="none" stroke="black" points="792.5,-612 573.25,-612 573.25,-576 792.5,-576 792.5,-612"/>
<text xml:space="preserve" text-anchor="middle" x="682.88" y="-586.62" font-family="Helvetica,sans-Serif" font-size="20.00">ToDatetime(Projection)</text>
</g>
<!-- &#45;4436528587271189447&#45;&gt;&#45;2808456881916695564 -->
<g id="edge14" class="edge">
<title>&#45;4436528587271189447&#45;&gt;&#45;2808456881916695564</title>
<path fill="none" stroke="black" d="M655.15,-612.48C641.14,-621.32 623.95,-632.16 608.83,-641.7"/>
<polygon fill="black" stroke="black" points="607.12,-638.64 600.53,-646.93 610.85,-644.56 607.12,-638.64"/>
</g>
<!-- 6532333300706786325 -->
<g id="node12" class="node">
<title>6532333300706786325</title>
<polygon fill="none" stroke="black" points="920.62,-540 531.12,-540 531.12,-504 920.62,-504 920.62,-540"/>
<text xml:space="preserve" text-anchor="middle" x="725.88" y="-514.62" font-family="Helvetica,sans-Serif" font-size="20.00">Projection(Assign, tpep_dropoff_datetime)</text>
</g>
<!-- 6532333300706786325&#45;&gt;&#45;4436528587271189447 -->
<g id="edge15" class="edge">
<title>6532333300706786325&#45;&gt;&#45;4436528587271189447</title>
<path fill="none" stroke="black" d="M715.25,-540.3C710.46,-548.1 704.69,-557.49 699.36,-566.17"/>
<polygon fill="black" stroke="black" points="696.43,-564.25 694.17,-574.61 702.39,-567.92 696.43,-564.25"/>
</g>
<!-- &#45;3523705728614558896 -->
<g id="node13" class="node">
<title>&#45;3523705728614558896</title>
<polygon fill="none" stroke="black" points="839,-468 388.75,-468 388.75,-432 839,-432 839,-468"/>
<text xml:space="preserve" text-anchor="middle" x="613.88" y="-442.62" font-family="Helvetica,sans-Serif" font-size="20.00">Assign(Drop, tpep_pickup_datetime, ToDatetime)</text>
</g>
<!-- &#45;3523705728614558896&#45;&gt;&#45;2808456881916695564 -->
<g id="edge13" class="edge">
<title>&#45;3523705728614558896&#45;&gt;&#45;2808456881916695564</title>
<path fill="none" stroke="black" d="M563.3,-468.28C547.15,-476.46 531.1,-488.04 521.88,-504 496.68,-547.59 527.92,-605.29 551.13,-638.46"/>
<polygon fill="black" stroke="black" points="548.11,-640.26 556.82,-646.3 553.78,-636.15 548.11,-640.26"/>
</g>
<!-- &#45;3523705728614558896&#45;&gt;6532333300706786325 -->
<g id="edge16" class="edge">
<title>&#45;3523705728614558896&#45;&gt;6532333300706786325</title>
<path fill="none" stroke="black" d="M641.85,-468.48C655.99,-477.32 673.34,-488.16 688.59,-497.7"/>
<polygon fill="black" stroke="black" points="686.64,-500.61 696.97,-502.94 690.35,-494.67 686.64,-500.61"/>
</g>
<!-- 2261584445485732597 -->
<g id="node14" class="node">
<title>2261584445485732597</title>
<polygon fill="none" stroke="black" points="829.5,-396 610.25,-396 610.25,-360 829.5,-360 829.5,-396"/>
<text xml:space="preserve" text-anchor="middle" x="719.88" y="-370.62" font-family="Helvetica,sans-Serif" font-size="20.00">ToDatetime(Projection)</text>
</g>
<!-- 2261584445485732597&#45;&gt;&#45;3523705728614558896 -->
<g id="edge17" class="edge">
<title>2261584445485732597&#45;&gt;&#45;3523705728614558896</title>
<path fill="none" stroke="black" d="M693.4,-396.48C680.15,-405.24 663.91,-415.96 649.58,-425.42"/>
<polygon fill="black" stroke="black" points="647.69,-422.47 641.28,-430.91 651.55,-428.32 647.69,-422.47"/>
</g>
<!-- &#45;4250991992715316760 -->
<g id="node15" class="node">
<title>&#45;4250991992715316760</title>
<polygon fill="none" stroke="black" points="941.12,-324 572.62,-324 572.62,-288 941.12,-288 941.12,-324"/>
<text xml:space="preserve" text-anchor="middle" x="756.88" y="-298.62" font-family="Helvetica,sans-Serif" font-size="20.00">Projection(Drop, tpep_pickup_datetime)</text>
</g>
<!-- &#45;4250991992715316760&#45;&gt;2261584445485732597 -->
<g id="edge19" class="edge">
<title>&#45;4250991992715316760&#45;&gt;2261584445485732597</title>
<path fill="none" stroke="black" d="M747.73,-324.3C743.65,-332.02 738.75,-341.29 734.21,-349.89"/>
<polygon fill="black" stroke="black" points="731.2,-348.08 729.62,-358.56 737.39,-351.35 731.2,-348.08"/>
</g>
<!-- &#45;353542551636333690 -->
<g id="node16" class="node">
<title>&#45;353542551636333690</title>
<polygon fill="none" stroke="black" points="718.88,-252 582.88,-252 582.88,-216 718.88,-216 718.88,-252"/>
<text xml:space="preserve" text-anchor="middle" x="650.88" y="-226.62" font-family="Helvetica,sans-Serif" font-size="20.00">Drop(Concat)</text>
</g>
<!-- &#45;353542551636333690&#45;&gt;&#45;3523705728614558896 -->
<g id="edge18" class="edge">
<title>&#45;353542551636333690&#45;&gt;&#45;3523705728614558896</title>
<path fill="none" stroke="black" d="M603.9,-252.39C588.32,-260.66 572.71,-272.27 563.88,-288 539.22,-331.9 570.27,-389.49 593.3,-422.56"/>
<polygon fill="black" stroke="black" points="590.25,-424.31 598.94,-430.37 595.93,-420.21 590.25,-424.31"/>
</g>
<!-- &#45;353542551636333690&#45;&gt;&#45;4250991992715316760 -->
<g id="edge20" class="edge">
<title>&#45;353542551636333690&#45;&gt;&#45;4250991992715316760</title>
<path fill="none" stroke="black" d="M677.35,-252.48C690.6,-261.24 706.84,-271.96 721.17,-281.42"/>
<polygon fill="black" stroke="black" points="719.2,-284.32 729.47,-286.91 723.06,-278.47 719.2,-284.32"/>
</g>
<!-- &#45;5280657057284810783 -->
<g id="node17" class="node">
<title>&#45;5280657057284810783</title>
<polygon fill="none" stroke="black" points="1016.25,-180 285.5,-180 285.5,-144 1016.25,-144 1016.25,-180"/>
<text xml:space="preserve" text-anchor="middle" x="650.88" y="-154.62" font-family="Helvetica,sans-Serif" font-size="20.00">Concat(ArrowStringConversion, ArrowStringConversion, ArrowStringConversion)</text>
</g>
<!-- &#45;5280657057284810783&#45;&gt;&#45;353542551636333690 -->
<g id="edge21" class="edge">
<title>&#45;5280657057284810783&#45;&gt;&#45;353542551636333690</title>
<path fill="none" stroke="black" d="M650.88,-180.3C650.88,-187.59 650.88,-196.27 650.88,-204.46"/>
<polygon fill="black" stroke="black" points="647.38,-204.38 650.88,-214.38 654.38,-204.38 647.38,-204.38"/>
</g>
<!-- &#45;6695498586263133287 -->
<g id="node18" class="node">
<title>&#45;6695498586263133287</title>
<polygon fill="none" stroke="black" points="421.75,-108 0,-108 0,-72 421.75,-72 421.75,-108"/>
<text xml:space="preserve" text-anchor="middle" x="210.88" y="-82.62" font-family="Helvetica,sans-Serif" font-size="20.00">ArrowStringConversion(FromMapProjectable)</text>
</g>
<!-- &#45;6695498586263133287&#45;&gt;&#45;5280657057284810783 -->
<g id="edge22" class="edge">
<title>&#45;6695498586263133287&#45;&gt;&#45;5280657057284810783</title>
<path fill="none" stroke="black" d="M320.77,-108.48C384.41,-118.61 464.62,-131.37 530.04,-141.78"/>
<polygon fill="black" stroke="black" points="529.32,-145.21 539.74,-143.32 530.42,-138.29 529.32,-145.21"/>
</g>
<!-- &#45;1810092219248971933 -->
<g id="node19" class="node">
<title>&#45;1810092219248971933</title>
<polygon fill="none" stroke="black" points="311.88,-36 109.88,-36 109.88,0 311.88,0 311.88,-36"/>
<text xml:space="preserve" text-anchor="middle" x="210.88" y="-10.62" font-family="Helvetica,sans-Serif" font-size="20.00">FromMapProjectable</text>
</g>
<!-- &#45;1810092219248971933&#45;&gt;&#45;6695498586263133287 -->
<g id="edge25" class="edge">
<title>&#45;1810092219248971933&#45;&gt;&#45;6695498586263133287</title>
<path fill="none" stroke="black" d="M210.88,-36.3C210.88,-43.59 210.88,-52.27 210.88,-60.46"/>
<polygon fill="black" stroke="black" points="207.38,-60.38 210.88,-70.38 214.38,-60.38 207.38,-60.38"/>
</g>
<!-- 3411609512399136109 -->
<g id="node20" class="node">
<title>3411609512399136109</title>
<polygon fill="none" stroke="black" points="861.75,-108 440,-108 440,-72 861.75,-72 861.75,-108"/>
<text xml:space="preserve" text-anchor="middle" x="650.88" y="-82.62" font-family="Helvetica,sans-Serif" font-size="20.00">ArrowStringConversion(FromMapProjectable)</text>
</g>
<!-- 3411609512399136109&#45;&gt;&#45;5280657057284810783 -->
<g id="edge23" class="edge">
<title>3411609512399136109&#45;&gt;&#45;5280657057284810783</title>
<path fill="none" stroke="black" d="M650.88,-108.3C650.88,-115.59 650.88,-124.27 650.88,-132.46"/>
<polygon fill="black" stroke="black" points="647.38,-132.38 650.88,-142.38 654.38,-132.38 647.38,-132.38"/>
</g>
<!-- &#45;5367456269730252073 -->
<g id="node21" class="node">
<title>&#45;5367456269730252073</title>
<polygon fill="none" stroke="black" points="751.88,-36 549.88,-36 549.88,0 751.88,0 751.88,-36"/>
<text xml:space="preserve" text-anchor="middle" x="650.88" y="-10.62" font-family="Helvetica,sans-Serif" font-size="20.00">FromMapProjectable</text>
</g>
<!-- &#45;5367456269730252073&#45;&gt;3411609512399136109 -->
<g id="edge26" class="edge">
<title>&#45;5367456269730252073&#45;&gt;3411609512399136109</title>
<path fill="none" stroke="black" d="M650.88,-36.3C650.88,-43.59 650.88,-52.27 650.88,-60.46"/>
<polygon fill="black" stroke="black" points="647.38,-60.38 650.88,-70.38 654.38,-60.38 647.38,-60.38"/>
</g>
<!-- &#45;5266260846371342762 -->
<g id="node22" class="node">
<title>&#45;5266260846371342762</title>
<polygon fill="none" stroke="black" points="1301.75,-108 880,-108 880,-72 1301.75,-72 1301.75,-108"/>
<text xml:space="preserve" text-anchor="middle" x="1090.88" y="-82.62" font-family="Helvetica,sans-Serif" font-size="20.00">ArrowStringConversion(FromMapProjectable)</text>
</g>
<!-- &#45;5266260846371342762&#45;&gt;&#45;5280657057284810783 -->
<g id="edge24" class="edge">
<title>&#45;5266260846371342762&#45;&gt;&#45;5280657057284810783</title>
<path fill="none" stroke="black" d="M980.98,-108.48C917.34,-118.61 837.13,-131.37 771.71,-141.78"/>
<polygon fill="black" stroke="black" points="771.33,-138.29 762.01,-143.32 772.43,-145.21 771.33,-138.29"/>
</g>
<!-- 5474601599672704790 -->
<g id="node23" class="node">
<title>5474601599672704790</title>
<polygon fill="none" stroke="black" points="1191.88,-36 989.88,-36 989.88,0 1191.88,0 1191.88,-36"/>
<text xml:space="preserve" text-anchor="middle" x="1090.88" y="-10.62" font-family="Helvetica,sans-Serif" font-size="20.00">FromMapProjectable</text>
</g>
<!-- 5474601599672704790&#45;&gt;&#45;5266260846371342762 -->
<g id="edge27" class="edge">
<title>5474601599672704790&#45;&gt;&#45;5266260846371342762</title>
<path fill="none" stroke="black" d="M1090.88,-36.3C1090.88,-43.59 1090.88,-52.27 1090.88,-60.46"/>
<polygon fill="black" stroke="black" points="1087.38,-60.38 1090.88,-70.38 1094.38,-60.38 1087.38,-60.38"/>
</g>
</g>
</svg>
